<svg width="50" height="50" viewBox="0 0 50 50" fill="none" xmlns="http://www.w3.org/2000/svg">
<path d="M0 0H50V50H0V0Z" fill="black" fill-opacity="0.85"/>
<path d="M30.4738 20.96C29.6471 20.8267 28.9004 20.8133 28.2338 20.92C27.6738 21.0267 27.1538 21.2533 26.6738 21.6C26.1938 21.9467 25.9271 22.5467 25.8738 23.4C25.8471 24.04 25.9938 24.6 26.3138 25.08C26.6071 25.48 27.0738 25.8267 27.7138 26.12C28.3538 26.3867 29.3138 26.4533 30.5938 26.32C31.7938 26.1867 32.8738 26.24 33.8338 26.48C34.2338 26.5867 34.6338 26.7333 35.0338 26.92C35.4604 27.1067 35.8338 27.3733 36.1538 27.72C36.5004 28.04 36.7938 28.4533 37.0338 28.96C37.3004 29.44 37.4738 30.0133 37.5538 30.68C37.6071 31.48 37.5404 32.2533 37.3538 33C37.1938 33.64 36.8871 34.32 36.4338 35.04C36.0071 35.76 35.3271 36.3733 34.3938 36.88C33.4071 37.4133 32.2204 37.8 30.8338 38.04C29.6338 38.2533 28.1671 38.3333 26.4338 38.28C24.7004 38.2267 22.6604 37.88 20.3138 37.24C18.6604 36.7067 17.1938 35.8533 15.9138 34.68C15.3538 34.1733 14.8071 33.5867 14.2738 32.92C13.7671 32.2267 13.3138 31.4267 12.9138 30.52C12.5138 29.5867 12.1938 28.5333 11.9538 27.36C11.7404 26.1867 11.6604 24.88 11.7138 23.44C11.7404 21.36 12.1138 19.4133 12.8338 17.6C13.1538 16.8267 13.5538 16.0533 14.0338 15.28C14.5404 14.48 15.1671 13.7333 15.9138 13.04C16.6871 12.3467 17.5804 11.72 18.5938 11.16C19.6338 10.6 20.8471 10.16 22.2338 9.84C23.5938 9.52 25.0071 9.34667 26.4738 9.32C27.7004 9.29333 29.0471 9.41333 30.5138 9.68C32.0071 9.92 33.4471 10.4533 34.8338 11.28C35.5538 11.7867 36.1271 12.4 36.5538 13.12C36.7404 13.44 36.9004 13.8 37.0338 14.2C37.1671 14.5733 37.2471 14.9867 37.2738 15.44C37.3271 15.8933 37.3138 16.3867 37.2338 16.92C37.1538 17.4533 36.9804 18.0267 36.7138 18.64C36.4204 19.2533 36.0071 19.76 35.4738 20.16C35.0204 20.5067 34.3804 20.7867 33.5538 21C32.7538 21.2133 31.7271 21.2 30.4738 20.96Z" fill="white"/>
<path d="M30.4738 20.96L30.6618 19.9778L30.6474 19.9751L30.633 19.9728L30.4738 20.96ZM28.2338 20.92L28.0758 19.9326L28.0612 19.9349L28.0466 19.9377L28.2338 20.92ZM26.6738 21.6L26.0883 20.7893L26.0883 20.7893L26.6738 21.6ZM25.8738 23.4L24.8757 23.3376L24.8751 23.348L24.8746 23.3584L25.8738 23.4ZM26.3138 25.08L25.4817 25.6347L25.4941 25.6533L25.5073 25.6714L26.3138 25.08ZM27.7138 26.12L27.2971 27.0291L27.313 27.0364L27.3291 27.0431L27.7138 26.12ZM30.5938 26.32L30.6974 27.3146L30.7042 27.3139L30.5938 26.32ZM33.8338 26.48L34.0914 25.5138L34.0839 25.5118L34.0763 25.5099L33.8338 26.48ZM35.0338 26.92L34.6109 27.8262L34.6218 27.8313L34.6329 27.8362L35.0338 26.92ZM36.1538 27.72L35.4189 28.3983L35.4461 28.4277L35.4755 28.4548L36.1538 27.72ZM37.0338 28.96L36.13 29.3881L36.1439 29.4173L36.1596 29.4456L37.0338 28.96ZM37.5538 30.68L38.5515 30.6135L38.5498 30.5871L38.5466 30.5609L37.5538 30.68ZM37.3538 33L36.3836 32.7575L36.3836 32.7575L37.3538 33ZM36.4338 35.04L35.5875 34.5072L35.5803 34.5186L35.5735 34.5302L36.4338 35.04ZM34.3938 36.88L34.8693 37.7597L34.8708 37.7589L34.3938 36.88ZM30.8338 38.04L30.6632 37.0546L30.6587 37.0554L30.8338 38.04ZM26.4338 38.28L26.4645 37.2805L26.4338 38.28ZM20.3138 37.24L20.0067 38.1917L20.0285 38.1987L20.0506 38.2048L20.3138 37.24ZM15.9138 34.68L16.5895 33.9428L16.5847 33.9385L15.9138 34.68ZM14.2738 32.92L13.4664 33.51L13.4792 33.5276L13.4929 33.5447L14.2738 32.92ZM12.9138 30.52L11.9946 30.9139L11.9988 30.9236L12.9138 30.52ZM11.9538 27.36L10.9699 27.5389L10.9718 27.5497L10.974 27.5604L11.9538 27.36ZM11.7138 23.44L12.7131 23.477L12.7135 23.4649L12.7137 23.4528L11.7138 23.44ZM12.8338 17.6L11.9097 17.2176L11.907 17.2243L11.9043 17.231L12.8338 17.6ZM14.0338 15.28L13.1889 14.7449L13.1841 14.7526L14.0338 15.28ZM15.9138 13.04L15.2462 12.2954L15.2397 12.3013L15.2333 12.3072L15.9138 13.04ZM18.5938 11.16L18.1196 10.2795L18.1101 10.2848L18.5938 11.16ZM22.2338 9.84L22.4586 10.8144L22.4628 10.8134L22.2338 9.84ZM26.4738 9.32L26.4919 10.3198L26.4955 10.3198L26.4738 9.32ZM30.5138 9.68L30.3349 10.6639L30.345 10.6657L30.3551 10.6673L30.5138 9.68ZM34.8338 11.28L35.4092 10.4622L35.3783 10.4404L35.3458 10.4211L34.8338 11.28ZM36.5538 13.12L37.4176 12.6161L37.414 12.6102L36.5538 13.12ZM37.0338 14.2L36.0851 14.5162L36.0884 14.5263L36.092 14.5363L37.0338 14.2ZM37.2738 15.44L36.2755 15.4987L36.2772 15.5279L36.2806 15.5568L37.2738 15.44ZM37.2338 16.92L36.2448 16.7717L36.2448 16.7717L37.2338 16.92ZM36.7138 18.64L37.6159 19.0715L37.6236 19.0552L37.6308 19.0387L36.7138 18.64ZM35.4738 20.16L34.8737 19.36L34.8663 19.3656L35.4738 20.16ZM33.5538 21L33.3039 20.0317L33.2961 20.0338L33.5538 21ZM30.633 19.9728C29.7255 19.8264 28.8692 19.8056 28.0758 19.9326L28.3917 21.9074C28.9316 21.8211 29.5687 21.8269 30.3145 21.9472L30.633 19.9728ZM28.0466 19.9377C27.3373 20.0728 26.6822 20.3604 26.0883 20.7893L27.2592 22.4107C27.6253 22.1463 28.0102 21.9806 28.4209 21.9023L28.0466 19.9377ZM26.0883 20.7893C25.2727 21.3783 24.9391 22.323 24.8757 23.3376L26.8718 23.4624C26.9151 22.7703 27.1148 22.515 27.2592 22.4107L26.0883 20.7893ZM24.8746 23.3584C24.8402 24.1853 25.0314 24.9593 25.4817 25.6347L27.1458 24.5253C26.9561 24.2407 26.854 23.8947 26.8729 23.4416L24.8746 23.3584ZM25.5073 25.6714C25.9349 26.2544 26.5634 26.6928 27.2971 27.0291L28.1304 25.2109C27.5841 24.9605 27.2793 24.7056 27.1202 24.4886L25.5073 25.6714ZM27.3291 27.0431C28.2055 27.4082 29.3709 27.4528 30.6974 27.3146L30.4901 25.3254C29.2566 25.4539 28.502 25.3651 28.0984 25.1969L27.3291 27.0431ZM30.7042 27.3139C31.8112 27.1909 32.7688 27.2445 33.5912 27.4501L34.0763 25.5099C32.9787 25.2355 31.7763 25.1825 30.4833 25.3261L30.7042 27.3139ZM33.5761 27.4462C33.9158 27.5368 34.2606 27.6627 34.6109 27.8262L35.4566 26.0138C35.0069 25.8039 34.5517 25.6365 34.0914 25.5138L33.5761 27.4462ZM34.6329 27.8362C34.9313 27.9667 35.1914 28.1518 35.4189 28.3983L36.8886 27.0417C36.4761 26.5949 35.9895 26.2466 35.4346 26.0038L34.6329 27.8362ZM35.4755 28.4548C35.7121 28.6732 35.9347 28.9758 36.13 29.3881L37.9375 28.5319C37.6528 27.9309 37.2887 27.4068 36.832 26.9852L35.4755 28.4548ZM36.1596 29.4456C36.351 29.7901 36.493 30.2333 36.5609 30.7991L38.5466 30.5609C38.4545 29.7934 38.2499 29.0899 37.9079 28.4744L36.1596 29.4456ZM36.556 30.7465C36.6027 31.4471 36.544 32.1159 36.3836 32.7575L38.3239 33.2425C38.5368 32.3908 38.6115 31.5129 38.5515 30.6135L36.556 30.7465ZM36.3836 32.7575C36.2555 33.2699 35.9999 33.8522 35.5875 34.5072L37.28 35.5728C37.7743 34.7878 38.132 34.0101 38.3239 33.2425L36.3836 32.7575ZM35.5735 34.5302C35.2605 35.0582 34.7334 35.5578 33.9167 36.0011L34.8708 37.7589C35.9208 37.1889 36.7536 36.4618 37.294 35.5498L35.5735 34.5302ZM33.9182 36.0003C33.0475 36.4709 31.9691 36.8286 30.6632 37.0546L31.0043 39.0254C32.4717 38.7714 33.7666 38.3557 34.8693 37.7597L33.9182 36.0003ZM30.6587 37.0554C29.5484 37.2528 28.1553 37.3325 26.4645 37.2805L26.403 39.2795C28.1789 39.3342 29.7191 39.2538 31.0088 39.0246L30.6587 37.0554ZM26.4645 37.2805C24.8341 37.2303 22.8755 36.9021 20.5769 36.2752L20.0506 38.2048C22.4453 38.8579 24.5667 39.223 26.403 39.2795L26.4645 37.2805ZM20.6208 36.2883C19.1043 35.7991 17.7634 35.0189 16.5895 33.9428L15.238 35.4172C16.6241 36.6877 18.2166 37.6142 20.0067 38.1917L20.6208 36.2883ZM16.5847 33.9385C16.0691 33.472 15.5587 32.9254 15.0546 32.2953L13.4929 33.5447C14.0554 34.2479 14.6384 34.8746 15.2428 35.4215L16.5847 33.9385ZM15.0811 32.33C14.6228 31.7028 14.204 30.967 13.8287 30.1164L11.9988 30.9236C12.4235 31.8863 12.9113 32.7505 13.4664 33.51L15.0811 32.33ZM13.8329 30.1261C13.4638 29.2649 13.1622 28.278 12.9335 27.1596L10.974 27.5604C11.2253 28.7887 11.5637 29.9084 11.9946 30.9139L13.8329 30.1261ZM12.9376 27.1811C12.7396 26.0919 12.6619 24.8591 12.7131 23.477L10.7144 23.403C10.659 24.9009 10.7413 26.2814 10.9699 27.5389L12.9376 27.1811ZM12.7137 23.4528C12.7389 21.4867 13.0911 19.6616 13.7632 17.969L11.9043 17.231C11.1364 19.1651 10.742 21.2333 10.7138 23.4272L12.7137 23.4528ZM13.7578 17.9824C14.0552 17.2634 14.4296 16.5384 14.8834 15.8074L13.1841 14.7526C12.6779 15.5682 12.2523 16.3899 11.9097 17.2176L13.7578 17.9824ZM14.8786 15.8151C15.3358 15.0931 15.9058 14.412 16.5942 13.7728L15.2333 12.3072C14.4283 13.0547 13.745 13.8669 13.1889 14.7449L14.8786 15.8151ZM16.5813 13.7846C17.2925 13.147 18.1227 12.5629 19.0774 12.0352L18.1101 10.2848C17.0381 10.8771 16.0817 11.5464 15.2462 12.2954L16.5813 13.7846ZM19.0679 12.0405C20.0152 11.5303 21.1417 11.1183 22.4586 10.8144L22.0089 8.86561C20.5524 9.20171 19.2523 9.66966 18.1196 10.2795L19.0679 12.0405ZM22.4628 10.8134C23.7503 10.5105 25.0928 10.3453 26.4919 10.3198L26.4556 8.32016C24.9214 8.34806 23.4372 8.52952 22.0047 8.86658L22.4628 10.8134ZM26.4955 10.3198C27.6424 10.2948 28.9208 10.4068 30.3349 10.6639L30.6926 8.69613C29.1734 8.4199 27.7584 8.29183 26.452 8.32024L26.4955 10.3198ZM30.3551 10.6673C31.7153 10.8859 33.0362 11.3726 34.3217 12.1389L35.3458 10.4211C33.8579 9.53404 32.2988 8.95405 30.6724 8.69267L30.3551 10.6673ZM34.2583 12.0978C34.8687 12.5274 35.3426 13.0377 35.6935 13.6298L37.414 12.6102C36.9116 11.7623 36.2388 11.0459 35.4092 10.4622L34.2583 12.0978ZM35.69 13.6239C35.8376 13.8769 35.9706 14.1727 36.0851 14.5162L37.9824 13.8838C37.8303 13.4272 37.6433 13.0031 37.4175 12.6161L35.69 13.6239ZM36.092 14.5363C36.1892 14.8084 36.2536 15.1266 36.2755 15.4987L38.272 15.3813C38.2406 14.8467 38.145 14.3383 37.9755 13.8637L36.092 14.5363ZM36.2806 15.5568C36.3219 15.9077 36.314 16.3107 36.2448 16.7717L38.2227 17.0683C38.3135 16.4626 38.3323 15.8789 38.2669 15.3232L36.2806 15.5568ZM36.2448 16.7717C36.1804 17.201 36.0365 17.6896 35.7967 18.2413L37.6308 19.0387C37.9243 18.3637 38.1271 17.7056 38.2227 17.0683L36.2448 16.7717ZM35.8116 18.2085C35.5864 18.6795 35.2755 19.0587 34.8738 19.36L36.0738 20.96C36.7387 20.4613 37.2544 19.8272 37.6159 19.0715L35.8116 18.2085ZM34.8663 19.3656C34.5585 19.601 34.0592 19.8368 33.3039 20.0317L33.8036 21.9683C34.7016 21.7365 35.4823 21.4123 36.0812 20.9544L34.8663 19.3656ZM33.2961 20.0338C32.699 20.193 31.8396 20.2034 30.6618 19.9778L30.2857 21.9422C31.6146 22.1966 32.8085 22.2337 33.8114 21.9662L33.2961 20.0338Z" fill="black" fill-opacity="0.1"/>
</svg>
